<?xml version="1.0" encoding="UTF-8"?>
<!DOCTYPE svg PUBLIC "-//W3C//DTD SVG 1.1//EN" "http://www.w3.org/Graphics/SVG/1.1/DTD/svg11.dtd">
<!-- Creator: CorelDRAW 2019 (64-Bit) -->
<svg xmlns="http://www.w3.org/2000/svg" xml:space="preserve" width="400mm" height="200mm" version="1.1" style="shape-rendering:geometricPrecision; text-rendering:geometricPrecision; image-rendering:optimizeQuality; fill-rule:evenodd; clip-rule:evenodd"
viewBox="0 0 400 200"
 xmlns:xlink="http://www.w3.org/1999/xlink"
 xmlns:xodm="http://www.corel.com/coreldraw/odm/2003">
 <defs>
  <style type="text/css">
   <![CDATA[
    .fil69 {fill:url(#id0)}
    .fil112 {fill:url(#id1)}
    .fil74 {fill:url(#id2)}
    .fil61 {fill:url(#id3)}
    .fil45 {fill:url(#id4)}
    .fil33 {fill:url(#id5)}
    .fil42 {fill:url(#id6)}
    .fil62 {fill:url(#id7)}
    .fil26 {fill:url(#id8)}
    .fil44 {fill:url(#id9)}
    .fil116 {fill:url(#id10)}
    .fil136 {fill:url(#id11)}
    .fil9 {fill:url(#id12)}
    .fil51 {fill:url(#id13)}
    .fil134 {fill:url(#id14)}
    .fil47 {fill:url(#id15)}
    .fil19 {fill:url(#id16)}
    .fil108 {fill:url(#id17)}
    .fil7 {fill:url(#id18)}
    .fil23 {fill:url(#id19)}
    .fil86 {fill:url(#id20)}
    .fil50 {fill:url(#id21)}
    .fil76 {fill:url(#id22)}
    .fil111 {fill:url(#id23)}
    .fil97 {fill:url(#id24)}
    .fil30 {fill:url(#id25)}
    .fil78 {fill:url(#id26)}
    .fil101 {fill:url(#id27)}
    .fil11 {fill:url(#id28)}
    .fil110 {fill:url(#id29)}
    .fil22 {fill:url(#id30)}
    .fil92 {fill:url(#id31)}
    .fil105 {fill:url(#id32)}
    .fil99 {fill:url(#id33)}
    .fil98 {fill:url(#id34)}
    .fil41 {fill:url(#id35)}
    .fil54 {fill:url(#id36)}
    .fil25 {fill:url(#id37)}
    .fil8 {fill:url(#id38)}
    .fil119 {fill:url(#id39)}
    .fil114 {fill:url(#id40)}
    .fil81 {fill:url(#id41)}
    .fil27 {fill:url(#id42)}
    .fil141 {fill:url(#id43)}
    .fil90 {fill:url(#id44)}
    .fil40 {fill:url(#id45)}
    .fil60 {fill:url(#id46)}
    .fil104 {fill:url(#id47)}
    .fil46 {fill:url(#id48)}
    .fil125 {fill:url(#id49)}
    .fil29 {fill:url(#id50)}
    .fil133 {fill:url(#id51)}
    .fil57 {fill:url(#id52)}
    .fil138 {fill:url(#id53)}
    .fil130 {fill:url(#id54)}
    .fil93 {fill:url(#id55)}
    .fil96 {fill:url(#id56)}
    .fil85 {fill:url(#id57)}
    .fil12 {fill:url(#id58)}
    .fil91 {fill:url(#id59)}
    .fil17 {fill:url(#id60)}
    .fil59 {fill:url(#id61)}
    .fil15 {fill:url(#id62)}
    .fil80 {fill:url(#id63)}
    .fil38 {fill:url(#id64)}
    .fil21 {fill:url(#id65)}
    .fil4 {fill:url(#id66)}
    .fil73 {fill:url(#id67)}
    .fil13 {fill:url(#id68)}
    .fil126 {fill:url(#id69)}
    .fil63 {fill:url(#id70)}
    .fil68 {fill:url(#id71)}
    .fil56 {fill:url(#id72)}
    .fil144 {fill:url(#id73)}
    .fil20 {fill:url(#id74)}
    .fil5 {fill:url(#id75)}
    .fil66 {fill:url(#id76)}
    .fil132 {fill:url(#id77)}
    .fil14 {fill:url(#id78)}
    .fil24 {fill:url(#id79)}
    .fil123 {fill:url(#id80)}
    .fil129 {fill:url(#id81)}
    .fil145 {fill:url(#id82)}
    .fil48 {fill:url(#id83)}
    .fil95 {fill:url(#id84)}
    .fil71 {fill:url(#id85)}
    .fil84 {fill:url(#id86)}
    .fil10 {fill:url(#id87)}
    .fil100 {fill:url(#id88)}
    .fil137 {fill:url(#id89)}
    .fil139 {fill:url(#id90)}
    .fil72 {fill:url(#id91)}
    .fil102 {fill:url(#id92)}
    .fil32 {fill:url(#id93)}
    .fil140 {fill:url(#id94)}
    .fil70 {fill:url(#id95)}
    .fil143 {fill:url(#id96)}
    .fil106 {fill:url(#id97)}
    .fil28 {fill:url(#id98)}
    .fil89 {fill:url(#id99)}
    .fil0 {fill:url(#id100)}
    .fil122 {fill:url(#id101)}
    .fil124 {fill:url(#id102)}
    .fil94 {fill:url(#id103)}
    .fil127 {fill:url(#id104)}
    .fil39 {fill:url(#id105)}
    .fil142 {fill:url(#id106)}
    .fil52 {fill:url(#id107)}
    .fil115 {fill:url(#id108)}
    .fil35 {fill:url(#id109)}
    .fil135 {fill:url(#id110)}
    .fil79 {fill:url(#id111)}
    .fil117 {fill:url(#id112)}
    .fil75 {fill:url(#id113)}
    .fil2 {fill:url(#id114)}
    .fil53 {fill:url(#id115)}
    .fil107 {fill:url(#id116)}
    .fil88 {fill:url(#id117)}
    .fil82 {fill:url(#id118)}
    .fil77 {fill:url(#id119)}
    .fil87 {fill:url(#id120)}
    .fil64 {fill:url(#id121)}
    .fil103 {fill:url(#id122)}
    .fil34 {fill:url(#id123)}
    .fil55 {fill:url(#id124)}
    .fil31 {fill:url(#id125)}
    .fil131 {fill:url(#id126)}
    .fil1 {fill:url(#id127)}
    .fil120 {fill:url(#id128)}
    .fil128 {fill:url(#id129)}
    .fil121 {fill:url(#id130)}
    .fil49 {fill:url(#id131)}
    .fil6 {fill:url(#id132)}
    .fil109 {fill:url(#id133)}
    .fil67 {fill:url(#id134)}
    .fil58 {fill:url(#id135)}
    .fil37 {fill:url(#id136)}
    .fil118 {fill:url(#id137)}
    .fil113 {fill:url(#id138)}
    .fil43 {fill:url(#id139)}
    .fil16 {fill:url(#id140)}
    .fil3 {fill:url(#id141)}
    .fil83 {fill:url(#id142)}
    .fil36 {fill:url(#id143)}
    .fil18 {fill:url(#id144)}
    .fil65 {fill:url(#id145)}
   ]]>
  </style>
  <linearGradient id="id0" gradientUnits="userSpaceOnUse" x1="152.6955" y1="146.0871" x2="241.7139" y2="63.663">
   <stop offset="0" style="stop-opacity:1; stop-color:#643E8E"/>
   <stop offset="0.439216" style="stop-opacity:1; stop-color:#C72E58"/>
   <stop offset="1" style="stop-opacity:1; stop-color:#E68D27"/>
  </linearGradient>
  <linearGradient id="id1" gradientUnits="userSpaceOnUse" xlink:href="#id0" x1="152.6957" y1="146.0869" x2="241.7137" y2="63.6629">
  </linearGradient>
  <linearGradient id="id2" gradientUnits="userSpaceOnUse" xlink:href="#id0" x1="152.6958" y1="146.0873" x2="241.7137" y2="63.6623">
  </linearGradient>
  <linearGradient id="id3" gradientUnits="userSpaceOnUse" xlink:href="#id0" x1="152.6958" y1="146.0867" x2="241.7136" y2="63.6625">
  </linearGradient>
  <linearGradient id="id4" gradientUnits="userSpaceOnUse" xlink:href="#id0" x1="152.6958" y1="146.0873" x2="241.714" y2="63.6627">
  </linearGradient>
  <linearGradient id="id5" gradientUnits="userSpaceOnUse" xlink:href="#id0" x1="152.6962" y1="146.0873" x2="241.7143" y2="63.6625">
  </linearGradient>
  <linearGradient id="id6" gradientUnits="userSpaceOnUse" xlink:href="#id0" x1="152.6957" y1="146.0869" x2="241.7136" y2="63.6629">
  </linearGradient>
  <linearGradient id="id7" gradientUnits="userSpaceOnUse" xlink:href="#id0" x1="152.6954" y1="146.087" x2="241.7137" y2="63.6637">
  </linearGradient>
  <linearGradient id="id8" gradientUnits="userSpaceOnUse" xlink:href="#id0" x1="152.6951" y1="146.0866" x2="241.7132" y2="63.6633">
  </linearGradient>
  <linearGradient id="id9" gradientUnits="userSpaceOnUse" xlink:href="#id0" x1="152.695" y1="146.0863" x2="241.7129" y2="63.6635">
  </linearGradient>
  <linearGradient id="id10" gradientUnits="userSpaceOnUse" xlink:href="#id0" x1="152.6971" y1="146.0861" x2="241.7152" y2="63.6638">
  </linearGradient>
  <linearGradient id="id11" gradientUnits="userSpaceOnUse" xlink:href="#id0" x1="152.6958" y1="146.0869" x2="241.7139" y2="63.663">
  </linearGradient>
  <linearGradient id="id12" gradientUnits="userSpaceOnUse" xlink:href="#id0" x1="152.6962" y1="146.0875" x2="241.7133" y2="63.6617">
  </linearGradient>
  <linearGradient id="id13" gradientUnits="userSpaceOnUse" xlink:href="#id0" x1="152.6958" y1="146.0873" x2="241.714" y2="63.6629">
  </linearGradient>
  <linearGradient id="id14" gradientUnits="userSpaceOnUse" xlink:href="#id0" x1="152.6955" y1="146.0871" x2="241.7136" y2="63.6627">
  </linearGradient>
  <linearGradient id="id15" gradientUnits="userSpaceOnUse" xlink:href="#id0" x1="152.6959" y1="146.0869" x2="241.7135" y2="63.6626">
  </linearGradient>
  <linearGradient id="id16" gradientUnits="userSpaceOnUse" xlink:href="#id0" x1="152.6957" y1="146.087" x2="241.7137" y2="63.6629">
  </linearGradient>
  <linearGradient id="id17" gradientUnits="userSpaceOnUse" xlink:href="#id0" x1="152.6955" y1="146.0863" x2="241.7137" y2="63.6633">
  </linearGradient>
  <linearGradient id="id18" gradientUnits="userSpaceOnUse" xlink:href="#id0" x1="152.6946" y1="146.0878" x2="241.7148" y2="63.6633">
  </linearGradient>
  <linearGradient id="id19" gradientUnits="userSpaceOnUse" xlink:href="#id0" x1="152.6958" y1="146.087" x2="241.7135" y2="63.663">
  </linearGradient>
  <linearGradient id="id20" gradientUnits="userSpaceOnUse" xlink:href="#id0" x1="152.6957" y1="146.087" x2="241.7136" y2="63.663">
  </linearGradient>
  <linearGradient id="id21" gradientUnits="userSpaceOnUse" xlink:href="#id0" x1="152.6959" y1="146.0873" x2="241.714" y2="63.6626">
  </linearGradient>
  <linearGradient id="id22" gradientUnits="userSpaceOnUse" xlink:href="#id0" x1="152.6957" y1="146.0869" x2="241.7137" y2="63.663">
  </linearGradient>
  <linearGradient id="id23" gradientUnits="userSpaceOnUse" xlink:href="#id0" x1="152.6962" y1="146.089" x2="241.714" y2="63.6614">
  </linearGradient>
  <linearGradient id="id24" gradientUnits="userSpaceOnUse" xlink:href="#id0" x1="152.6957" y1="146.087" x2="241.7137" y2="63.6629">
  </linearGradient>
  <linearGradient id="id25" gradientUnits="userSpaceOnUse" xlink:href="#id0" x1="152.6957" y1="146.0869" x2="241.7136" y2="63.6629">
  </linearGradient>
  <linearGradient id="id26" gradientUnits="userSpaceOnUse" xlink:href="#id0" x1="152.6955" y1="146.087" x2="241.7139" y2="63.6631">
  </linearGradient>
  <linearGradient id="id27" gradientUnits="userSpaceOnUse" xlink:href="#id0" x1="152.6963" y1="146.0874" x2="241.7128" y2="63.6633">
  </linearGradient>
  <linearGradient id="id28" gradientUnits="userSpaceOnUse" xlink:href="#id0" x1="152.6961" y1="146.0867" x2="241.7133" y2="63.6625">
  </linearGradient>
  <linearGradient id="id29" gradientUnits="userSpaceOnUse" xlink:href="#id0" x1="152.6957" y1="146.0869" x2="241.7137" y2="63.663">
  </linearGradient>
  <linearGradient id="id30" gradientUnits="userSpaceOnUse" xlink:href="#id0" x1="152.6957" y1="146.0869" x2="241.7135" y2="63.663">
  </linearGradient>
  <linearGradient id="id31" gradientUnits="userSpaceOnUse" xlink:href="#id0" x1="152.6955" y1="146.0865" x2="241.7132" y2="63.6637">
  </linearGradient>
  <linearGradient id="id32" gradientUnits="userSpaceOnUse" xlink:href="#id0" x1="152.6958" y1="146.0873" x2="241.7137" y2="63.6629">
  </linearGradient>
  <linearGradient id="id33" gradientUnits="userSpaceOnUse" xlink:href="#id0" x1="152.6973" y1="146.0882" x2="241.7116" y2="63.6641">
  </linearGradient>
  <linearGradient id="id34" gradientUnits="userSpaceOnUse" xlink:href="#id0" x1="152.6958" y1="146.0871" x2="241.7133" y2="63.6631">
  </linearGradient>
  <linearGradient id="id35" gradientUnits="userSpaceOnUse" xlink:href="#id0" x1="152.6953" y1="146.0871" x2="241.7139" y2="63.6633">
  </linearGradient>
  <linearGradient id="id36" gradientUnits="userSpaceOnUse" xlink:href="#id0" x1="152.6958" y1="146.0873" x2="241.7139" y2="63.6627">
  </linearGradient>
  <linearGradient id="id37" gradientUnits="userSpaceOnUse" xlink:href="#id0" x1="152.6954" y1="146.087" x2="241.714" y2="63.6629">
  </linearGradient>
  <linearGradient id="id38" gradientUnits="userSpaceOnUse" xlink:href="#id0" x1="152.6953" y1="146.0871" x2="241.714" y2="63.6631">
  </linearGradient>
  <linearGradient id="id39" gradientUnits="userSpaceOnUse" xlink:href="#id0" x1="152.6962" y1="146.0867" x2="241.7143" y2="63.6631">
  </linearGradient>
  <linearGradient id="id40" gradientUnits="userSpaceOnUse" xlink:href="#id0" x1="152.695" y1="146.0874" x2="241.7135" y2="63.6627">
  </linearGradient>
  <linearGradient id="id41" gradientUnits="userSpaceOnUse" xlink:href="#id0" x1="152.6958" y1="146.0869" x2="241.7137" y2="63.6627">
  </linearGradient>
  <linearGradient id="id42" gradientUnits="userSpaceOnUse" xlink:href="#id0" x1="152.6957" y1="146.087" x2="241.7139" y2="63.6629">
  </linearGradient>
  <linearGradient id="id43" gradientUnits="userSpaceOnUse" xlink:href="#id0" x1="152.6954" y1="146.0865" x2="241.714" y2="63.6626">
  </linearGradient>
  <linearGradient id="id44" gradientUnits="userSpaceOnUse" xlink:href="#id0" x1="152.6953" y1="146.0865" x2="241.7137" y2="63.6629">
  </linearGradient>
  <linearGradient id="id45" gradientUnits="userSpaceOnUse" xlink:href="#id0" x1="152.6959" y1="146.0869" x2="241.7136" y2="63.6627">
  </linearGradient>
  <linearGradient id="id46" gradientUnits="userSpaceOnUse" xlink:href="#id0" x1="152.6957" y1="146.0869" x2="241.7137" y2="63.663">
  </linearGradient>
  <linearGradient id="id47" gradientUnits="userSpaceOnUse" xlink:href="#id0" x1="152.6957" y1="146.0869" x2="241.7136" y2="63.663">
  </linearGradient>
  <linearGradient id="id48" gradientUnits="userSpaceOnUse" xlink:href="#id0" x1="152.697" y1="146.0883" x2="241.7153" y2="63.6615">
  </linearGradient>
  <linearGradient id="id49" gradientUnits="userSpaceOnUse" xlink:href="#id0" x1="152.6959" y1="146.087" x2="241.7137" y2="63.6631">
  </linearGradient>
  <linearGradient id="id50" gradientUnits="userSpaceOnUse" xlink:href="#id0" x1="152.6957" y1="146.0871" x2="241.714" y2="63.6627">
  </linearGradient>
  <linearGradient id="id51" gradientUnits="userSpaceOnUse" xlink:href="#id0" x1="152.6957" y1="146.087" x2="241.7137" y2="63.6629">
  </linearGradient>
  <linearGradient id="id52" gradientUnits="userSpaceOnUse" xlink:href="#id0" x1="152.6957" y1="146.0875" x2="241.7141" y2="63.6629">
  </linearGradient>
  <linearGradient id="id53" gradientUnits="userSpaceOnUse" xlink:href="#id0" x1="152.6958" y1="146.087" x2="241.7135" y2="63.6629">
  </linearGradient>
  <linearGradient id="id54" gradientUnits="userSpaceOnUse" xlink:href="#id0" x1="152.6953" y1="146.0873" x2="241.7133" y2="63.6625">
  </linearGradient>
  <linearGradient id="id55" gradientUnits="userSpaceOnUse" xlink:href="#id0" x1="152.6954" y1="146.0867" x2="241.7137" y2="63.6629">
  </linearGradient>
  <linearGradient id="id56" gradientUnits="userSpaceOnUse" xlink:href="#id0" x1="152.6949" y1="146.0862" x2="241.7127" y2="63.6639">
  </linearGradient>
  <linearGradient id="id57" gradientUnits="userSpaceOnUse" xlink:href="#id0" x1="152.6959" y1="146.0869" x2="241.7144" y2="63.6637">
  </linearGradient>
  <linearGradient id="id58" gradientUnits="userSpaceOnUse" xlink:href="#id0" x1="152.6954" y1="146.0869" x2="241.7139" y2="63.6634">
  </linearGradient>
  <linearGradient id="id59" gradientUnits="userSpaceOnUse" xlink:href="#id0" x1="152.6958" y1="146.0873" x2="241.7139" y2="63.6627">
  </linearGradient>
  <linearGradient id="id60" gradientUnits="userSpaceOnUse" xlink:href="#id0" x1="152.6957" y1="146.0869" x2="241.7137" y2="63.6629">
  </linearGradient>
  <linearGradient id="id61" gradientUnits="userSpaceOnUse" xlink:href="#id0" x1="152.6958" y1="146.0866" x2="241.7136" y2="63.6627">
  </linearGradient>
  <linearGradient id="id62" gradientUnits="userSpaceOnUse" xlink:href="#id0" x1="152.6957" y1="146.0869" x2="241.7137" y2="63.663">
  </linearGradient>
  <linearGradient id="id63" gradientUnits="userSpaceOnUse" xlink:href="#id0" x1="152.6957" y1="146.087" x2="241.7132" y2="63.6622">
  </linearGradient>
  <linearGradient id="id64" gradientUnits="userSpaceOnUse" xlink:href="#id0" x1="152.6953" y1="146.0865" x2="241.7131" y2="63.6631">
  </linearGradient>
  <linearGradient id="id65" gradientUnits="userSpaceOnUse" xlink:href="#id0" x1="152.6955" y1="146.0869" x2="241.7137" y2="63.6629">
  </linearGradient>
  <linearGradient id="id66" gradientUnits="userSpaceOnUse" xlink:href="#id0" x1="152.6947" y1="146.0875" x2="241.7147" y2="63.6637">
  </linearGradient>
  <linearGradient id="id67" gradientUnits="userSpaceOnUse" xlink:href="#id0" x1="152.6954" y1="146.0866" x2="241.7136" y2="63.6634">
  </linearGradient>
  <linearGradient id="id68" gradientUnits="userSpaceOnUse" xlink:href="#id0" x1="152.6958" y1="146.0871" x2="241.7135" y2="63.6626">
  </linearGradient>
  <linearGradient id="id69" gradientUnits="userSpaceOnUse" xlink:href="#id0" x1="152.6958" y1="146.0869" x2="241.7139" y2="63.6629">
  </linearGradient>
  <linearGradient id="id70" gradientUnits="userSpaceOnUse" xlink:href="#id0" x1="152.6955" y1="146.0873" x2="241.714" y2="63.6629">
  </linearGradient>
  <linearGradient id="id71" gradientUnits="userSpaceOnUse" xlink:href="#id0" x1="152.6954" y1="146.0875" x2="241.714" y2="63.6631">
  </linearGradient>
  <linearGradient id="id72" gradientUnits="userSpaceOnUse" xlink:href="#id0" x1="152.6955" y1="146.0871" x2="241.7139" y2="63.6631">
  </linearGradient>
  <linearGradient id="id73" gradientUnits="userSpaceOnUse" xlink:href="#id0" x1="152.6955" y1="146.0874" x2="241.714" y2="63.6622">
  </linearGradient>
  <linearGradient id="id74" gradientUnits="userSpaceOnUse" xlink:href="#id0" x1="152.6957" y1="146.087" x2="241.7136" y2="63.6629">
  </linearGradient>
  <linearGradient id="id75" gradientUnits="userSpaceOnUse" xlink:href="#id0" x1="152.6955" y1="146.0871" x2="241.7139" y2="63.663">
  </linearGradient>
  <linearGradient id="id76" gradientUnits="userSpaceOnUse" xlink:href="#id0" x1="152.6955" y1="146.0867" x2="241.7136" y2="63.6633">
  </linearGradient>
  <linearGradient id="id77" gradientUnits="userSpaceOnUse" xlink:href="#id0" x1="152.6958" y1="146.087" x2="241.7137" y2="63.6629">
  </linearGradient>
  <linearGradient id="id78" gradientUnits="userSpaceOnUse" xlink:href="#id0" x1="152.6955" y1="146.0871" x2="241.7139" y2="63.6627">
  </linearGradient>
  <linearGradient id="id79" gradientUnits="userSpaceOnUse" xlink:href="#id0" x1="152.6957" y1="146.087" x2="241.7136" y2="63.6629">
  </linearGradient>
  <linearGradient id="id80" gradientUnits="userSpaceOnUse" xlink:href="#id0" x1="152.6957" y1="146.087" x2="241.7137" y2="63.6629">
  </linearGradient>
  <linearGradient id="id81" gradientUnits="userSpaceOnUse" xlink:href="#id0" x1="152.6959" y1="146.087" x2="241.7136" y2="63.6629">
  </linearGradient>
  <linearGradient id="id82" gradientUnits="userSpaceOnUse" xlink:href="#id0" x1="152.6962" y1="146.0871" x2="241.7129" y2="63.6637">
  </linearGradient>
  <linearGradient id="id83" gradientUnits="userSpaceOnUse" xlink:href="#id0" x1="152.6958" y1="146.0869" x2="241.7136" y2="63.6627">
  </linearGradient>
  <linearGradient id="id84" gradientUnits="userSpaceOnUse" xlink:href="#id0" x1="152.6954" y1="146.0867" x2="241.7139" y2="63.6629">
  </linearGradient>
  <linearGradient id="id85" gradientUnits="userSpaceOnUse" xlink:href="#id0" x1="152.6953" y1="146.0879" x2="241.714" y2="63.6631">
  </linearGradient>
  <linearGradient id="id86" gradientUnits="userSpaceOnUse" xlink:href="#id0" x1="152.6957" y1="146.0867" x2="241.7131" y2="63.6621">
  </linearGradient>
  <linearGradient id="id87" gradientUnits="userSpaceOnUse" xlink:href="#id0" x1="152.6959" y1="146.0866" x2="241.7135" y2="63.6629">
  </linearGradient>
  <linearGradient id="id88" gradientUnits="userSpaceOnUse" xlink:href="#id0" x1="152.6957" y1="146.087" x2="241.7141" y2="63.6626">
  </linearGradient>
  <linearGradient id="id89" gradientUnits="userSpaceOnUse" xlink:href="#id0" x1="152.6954" y1="146.0871" x2="241.7136" y2="63.6626">
  </linearGradient>
  <linearGradient id="id90" gradientUnits="userSpaceOnUse" xlink:href="#id0" x1="152.6957" y1="146.087" x2="241.7137" y2="63.6629">
  </linearGradient>
  <linearGradient id="id91" gradientUnits="userSpaceOnUse" xlink:href="#id0" x1="152.6957" y1="146.087" x2="241.7136" y2="63.6625">
  </linearGradient>
  <linearGradient id="id92" gradientUnits="userSpaceOnUse" xlink:href="#id0" x1="152.6958" y1="146.0871" x2="241.7137" y2="63.6629">
  </linearGradient>
  <linearGradient id="id93" gradientUnits="userSpaceOnUse" xlink:href="#id0" x1="152.6959" y1="146.0873" x2="241.7143" y2="63.6627">
  </linearGradient>
  <linearGradient id="id94" gradientUnits="userSpaceOnUse" xlink:href="#id0" x1="152.6958" y1="146.0869" x2="241.7139" y2="63.6631">
  </linearGradient>
  <linearGradient id="id95" gradientUnits="userSpaceOnUse" xlink:href="#id0" x1="152.6957" y1="146.0871" x2="241.7137" y2="63.6627">
  </linearGradient>
  <linearGradient id="id96" gradientUnits="userSpaceOnUse" xlink:href="#id0" x1="152.6957" y1="146.0871" x2="241.7137" y2="63.6629">
  </linearGradient>
  <linearGradient id="id97" gradientUnits="userSpaceOnUse" xlink:href="#id0" x1="152.6955" y1="146.0867" x2="241.7139" y2="63.6629">
  </linearGradient>
  <linearGradient id="id98" gradientUnits="userSpaceOnUse" xlink:href="#id0" x1="152.6941" y1="146.0861" x2="241.7121" y2="63.6639">
  </linearGradient>
  <linearGradient id="id99" gradientUnits="userSpaceOnUse" xlink:href="#id0" x1="152.6958" y1="146.0871" x2="241.7135" y2="63.6633">
  </linearGradient>
  <linearGradient id="id100" gradientUnits="userSpaceOnUse" xlink:href="#id0" x1="152.6957" y1="146.0871" x2="241.7135" y2="63.6626">
  </linearGradient>
  <linearGradient id="id101" gradientUnits="userSpaceOnUse" xlink:href="#id0" x1="152.6951" y1="146.0873" x2="241.7132" y2="63.6626">
  </linearGradient>
  <linearGradient id="id102" gradientUnits="userSpaceOnUse" xlink:href="#id0" x1="152.6966" y1="146.0865" x2="241.7145" y2="63.6634">
  </linearGradient>
  <linearGradient id="id103" gradientUnits="userSpaceOnUse" xlink:href="#id0" x1="152.6955" y1="146.087" x2="241.7136" y2="63.663">
  </linearGradient>
  <linearGradient id="id104" gradientUnits="userSpaceOnUse" xlink:href="#id0" x1="152.6957" y1="146.0871" x2="241.7136" y2="63.663">
  </linearGradient>
  <linearGradient id="id105" gradientUnits="userSpaceOnUse" xlink:href="#id0" x1="152.6955" y1="146.087" x2="241.7137" y2="63.6629">
  </linearGradient>
  <linearGradient id="id106" gradientUnits="userSpaceOnUse" xlink:href="#id0" x1="152.6957" y1="146.0867" x2="241.7137" y2="63.6629">
  </linearGradient>
  <linearGradient id="id107" gradientUnits="userSpaceOnUse" xlink:href="#id0" x1="152.6961" y1="146.0866" x2="241.7135" y2="63.6622">
  </linearGradient>
  <linearGradient id="id108" gradientUnits="userSpaceOnUse" xlink:href="#id0" x1="152.6953" y1="146.0873" x2="241.7129" y2="63.6622">
  </linearGradient>
  <linearGradient id="id109" gradientUnits="userSpaceOnUse" xlink:href="#id0" x1="152.6959" y1="146.0869" x2="241.7135" y2="63.6627">
  </linearGradient>
  <linearGradient id="id110" gradientUnits="userSpaceOnUse" xlink:href="#id0" x1="152.6957" y1="146.0866" x2="241.7143" y2="63.663">
  </linearGradient>
  <linearGradient id="id111" gradientUnits="userSpaceOnUse" xlink:href="#id0" x1="152.6955" y1="146.0871" x2="241.7137" y2="63.6629">
  </linearGradient>
  <linearGradient id="id112" gradientUnits="userSpaceOnUse" xlink:href="#id0" x1="152.6937" y1="146.0882" x2="241.7124" y2="63.6621">
  </linearGradient>
  <linearGradient id="id113" gradientUnits="userSpaceOnUse" xlink:href="#id0" x1="152.6957" y1="146.087" x2="241.7137" y2="63.6627">
  </linearGradient>
  <linearGradient id="id114" gradientUnits="userSpaceOnUse" xlink:href="#id0" x1="152.6953" y1="146.0874" x2="241.7139" y2="63.6629">
  </linearGradient>
  <linearGradient id="id115" gradientUnits="userSpaceOnUse" xlink:href="#id0" x1="152.695" y1="146.0853" x2="241.7121" y2="63.6638">
  </linearGradient>
  <linearGradient id="id116" gradientUnits="userSpaceOnUse" xlink:href="#id0" x1="152.6955" y1="146.0865" x2="241.7136" y2="63.6633">
  </linearGradient>
  <linearGradient id="id117" gradientUnits="userSpaceOnUse" xlink:href="#id0" x1="152.6953" y1="146.0863" x2="241.7135" y2="63.6631">
  </linearGradient>
  <linearGradient id="id118" gradientUnits="userSpaceOnUse" xlink:href="#id0" x1="152.6962" y1="146.0866" x2="241.7144" y2="63.6637">
  </linearGradient>
  <linearGradient id="id119" gradientUnits="userSpaceOnUse" xlink:href="#id0" x1="152.6957" y1="146.087" x2="241.7137" y2="63.6627">
  </linearGradient>
  <linearGradient id="id120" gradientUnits="userSpaceOnUse" xlink:href="#id0" x1="152.6955" y1="146.0869" x2="241.7137" y2="63.663">
  </linearGradient>
  <linearGradient id="id121" gradientUnits="userSpaceOnUse" xlink:href="#id0" x1="152.6957" y1="146.0873" x2="241.7139" y2="63.6629">
  </linearGradient>
  <linearGradient id="id122" gradientUnits="userSpaceOnUse" xlink:href="#id0" x1="152.6967" y1="146.0879" x2="241.7156" y2="63.6614">
  </linearGradient>
  <linearGradient id="id123" gradientUnits="userSpaceOnUse" xlink:href="#id0" x1="152.6955" y1="146.0866" x2="241.7132" y2="63.6631">
  </linearGradient>
  <linearGradient id="id124" gradientUnits="userSpaceOnUse" xlink:href="#id0" x1="152.6959" y1="146.0871" x2="241.7139" y2="63.6625">
  </linearGradient>
  <linearGradient id="id125" gradientUnits="userSpaceOnUse" xlink:href="#id0" x1="152.6957" y1="146.0873" x2="241.7143" y2="63.6629">
  </linearGradient>
  <linearGradient id="id126" gradientUnits="userSpaceOnUse" xlink:href="#id0" x1="152.6958" y1="146.087" x2="241.7139" y2="63.663">
  </linearGradient>
  <linearGradient id="id127" gradientUnits="userSpaceOnUse" xlink:href="#id0" x1="152.6958" y1="146.0869" x2="241.7137" y2="63.6629">
  </linearGradient>
  <linearGradient id="id128" gradientUnits="userSpaceOnUse" xlink:href="#id0" x1="152.6951" y1="146.0873" x2="241.7132" y2="63.6625">
  </linearGradient>
  <linearGradient id="id129" gradientUnits="userSpaceOnUse" xlink:href="#id0" x1="152.6957" y1="146.087" x2="241.7137" y2="63.6629">
  </linearGradient>
  <linearGradient id="id130" gradientUnits="userSpaceOnUse" xlink:href="#id0" x1="152.6965" y1="146.0865" x2="241.7148" y2="63.6634">
  </linearGradient>
  <linearGradient id="id131" gradientUnits="userSpaceOnUse" xlink:href="#id0" x1="152.6955" y1="146.0873" x2="241.7139" y2="63.663">
  </linearGradient>
  <linearGradient id="id132" gradientUnits="userSpaceOnUse" xlink:href="#id0" x1="152.6955" y1="146.0871" x2="241.714" y2="63.663">
  </linearGradient>
  <linearGradient id="id133" gradientUnits="userSpaceOnUse" xlink:href="#id0" x1="152.6955" y1="146.0866" x2="241.7136" y2="63.6633">
  </linearGradient>
  <linearGradient id="id134" gradientUnits="userSpaceOnUse" xlink:href="#id0" x1="152.6955" y1="146.0869" x2="241.7137" y2="63.6633">
  </linearGradient>
  <linearGradient id="id135" gradientUnits="userSpaceOnUse" xlink:href="#id0" x1="152.6955" y1="146.0866" x2="241.7135" y2="63.6631">
  </linearGradient>
  <linearGradient id="id136" gradientUnits="userSpaceOnUse" xlink:href="#id0" x1="152.6955" y1="146.0869" x2="241.7135" y2="63.663">
  </linearGradient>
  <linearGradient id="id137" gradientUnits="userSpaceOnUse" xlink:href="#id0" x1="152.6966" y1="146.0865" x2="241.7149" y2="63.6637">
  </linearGradient>
  <linearGradient id="id138" gradientUnits="userSpaceOnUse" xlink:href="#id0" x1="152.6958" y1="146.0873" x2="241.7136" y2="63.6629">
  </linearGradient>
  <linearGradient id="id139" gradientUnits="userSpaceOnUse" xlink:href="#id0" x1="152.6954" y1="146.0867" x2="241.7135" y2="63.6631">
  </linearGradient>
  <linearGradient id="id140" gradientUnits="userSpaceOnUse" xlink:href="#id0" x1="152.6953" y1="146.0878" x2="241.7136" y2="63.6621">
  </linearGradient>
  <linearGradient id="id141" gradientUnits="userSpaceOnUse" xlink:href="#id0" x1="152.6957" y1="146.0871" x2="241.7137" y2="63.6629">
  </linearGradient>
  <linearGradient id="id142" gradientUnits="userSpaceOnUse" xlink:href="#id0" x1="152.6958" y1="146.0866" x2="241.7131" y2="63.6619">
  </linearGradient>
  <linearGradient id="id143" gradientUnits="userSpaceOnUse" xlink:href="#id0" x1="152.6959" y1="146.0869" x2="241.7136" y2="63.6627">
  </linearGradient>
  <linearGradient id="id144" gradientUnits="userSpaceOnUse" xlink:href="#id0" x1="152.6958" y1="146.0871" x2="241.7137" y2="63.6627">
  </linearGradient>
  <linearGradient id="id145" gradientUnits="userSpaceOnUse" xlink:href="#id0" x1="152.6955" y1="146.0871" x2="241.7139" y2="63.6631">
  </linearGradient>
 </defs>
 <g id="Слой_x0020_1">
  <metadata id="CorelCorpID_0Corel-Layer"/>
  <g id="_2883959200864">
   <polygon class="fil0" points="220.5603,76.2465 218.3704,82.7728 234.9024,86.7291 "/>
   <polygon class="fil1" points="224.8347,78.6928 234.7257,86.0228 232.5355,81.0773 "/>
   <polygon class="fil2" points="220.6749,75.9023 221.4344,73.3942 227.2807,78.4458 "/>
   <polygon class="fil3" points="221.1181,73.1828 218.0449,82.7559 213.2187,76.8079 "/>
   <polygon class="fil4" points="212.9575,76.4813 210.0719,72.7989 220.6605,72.9489 "/>
   <polygon class="fil5" points="209.5704,72.8544 204.3422,75.6452 212.6169,76.7844 "/>
   <polygon class="fil6" points="203.9359,75.9457 211.5131,76.9347 196.3056,82.428 "/>
   <polygon class="fil7" points="204.9954,79.6552 196.3409,82.7814 200.6328,81.9689 "/>
   <polygon class="fil8" points="202.4521,76.7233 195.97,82.2869 192.3846,79.3726 "/>
   <polygon class="fil9" points="192.2256,79.09 192.7201,75.3809 194.6453,78.4365 "/>
   <polygon class="fil10" points="208.9694,72.811 203.9179,75.5134 195.7932,72.2106 "/>
   <polygon class="fil11" points="203.1408,72.0694 194.9807,71.6455 193.8326,65.4814 "/>
   <polygon class="fil12" points="197.0293,67.2476 193.956,65.0928 198.8839,61.6486 "/>
   <polygon class="fil13" points="212.9609,77.1032 217.6061,82.7021 195.9345,93.5822 "/>
   <polygon class="fil14" points="212.2541,85.8813 196.1461,94.0767 207.4146,116.6849 "/>
   <polygon class="fil15" points="210.2762,78.958 195.9696,93.0173 200.3852,85.1045 "/>
   <polygon class="fil16" points="210.9121,98.051 207.9096,116.0666 211.3007,107.518 "/>
   <polygon class="fil17" points="202.1869,107.0937 207.0616,116.9317 192.4195,129.6484 "/>
   <polygon class="fil18" points="200.4738,110.0786 182.5291,74.4713 191.3954,130.7436 "/>
   <polygon class="fil19" points="181.7267,74.1178 190.9405,131.4173 157.3971,123.2778 "/>
   <polygon class="fil20" points="156.44,123.175 142.2072,112.9163 135.7603,120.4227 "/>
   <polygon class="fil21" points="125.1626,108.4714 135.2154,120.2462 138.8947,116.1176 "/>
   <polygon class="fil22" points="139.211,115.6613 131.4396,111.2971 141.625,112.9014 "/>
   <polygon class="fil23" points="125.7877,110.1194 134.3245,119.8338 129.0846,115.5359 "/>
   <polygon class="fil24" points="156.9397,122.9025 142.5154,112.3934 181.1373,73.3593 "/>
   <polygon class="fil25" points="142.0154,112.1725 141.3821,102.1637 127.8119,103.1354 "/>
   <polygon class="fil26" points="125.1328,92.1847 133.5519,102.3111 127.4582,102.7674 "/>
   <polygon class="fil27" points="134.0963,102.2523 140.2634,101.8991 126.7368,93.4361 "/>
   <polygon class="fil28" points="125,93.7601 126.8545,101.8703 125.368,98.3083 "/>
   <polygon class="fil29" points="142.4262,111.7617 141.5724,92.1416 154.4218,99.7216 "/>
   <polygon class="fil30" points="141.3441,101.8051 140.8216,91.76 129.665,91.1715 "/>
   <polygon class="fil31" points="140.2474,91.2011 129.3556,90.6565 127.339,84.7104 "/>
   <polygon class="fil32" points="127.2506,84.1069 127.4418,78.9259 138.157,89.5234 "/>
   <polygon class="fil33" points="127.5593,78.4552 128.9281,75.8058 132.8432,83.592 "/>
   <polygon class="fil34" points="143.8965,93.0575 149.3424,84.6678 154.7001,99.2393 "/>
   <polygon class="fil35" points="143.6315,92.587 148.842,84.3739 135.1242,81.9894 "/>
   <polygon class="fil36" points="147.5173,83.6382 134.8003,81.4303 131.9743,72.3636 "/>
   <polygon class="fil37" points="132.0041,71.7455 132.6222,67.1239 144.9712,81.2979 "/>
   <polygon class="fil38" points="132.7485,66.6344 135.3537,62.2188 142.0361,77.3644 "/>
   <polygon class="fil39" points="149.7774,84.2163 181.1354,72.5815 155.1867,98.9427 "/>
   <polygon class="fil40" points="149.6227,83.8498 142.3662,72.782 153.5226,74.5778 "/>
   <polygon class="fil41" points="152.9488,73.8717 142.219,72.2382 140.1877,64.1434 "/>
   <polygon class="fil42" points="140.2094,63.5222 140.7469,57.1895 152.2419,72.8284 "/>
   <polygon class="fil43" points="150.5487,69.8409 140.8857,56.734 142.9533,51.8549 "/>
   <polygon class="fil44" points="143.2184,51.5018 145.3232,48.6906 148.1932,63.2622 "/>
   <polygon class="fil45" points="145.639,48.3966 149.6499,44.6581 146.2203,51.1491 "/>
   <polygon class="fil46" points="146.3597,51.8778 148.4938,47.7271 147.3016,57.103 "/>
   <polygon class="fil47" points="150.2364,83.6266 153.9743,74.6409 180.814,72.2788 "/>
   <polygon class="fil48" points="153.511,74.2368 168.8919,72.9269 149.9931,58.2673 "/>
   <polygon class="fil49" points="159.884,65.3914 150.0519,57.7967 153.0839,46.4047 "/>
   <polygon class="fil50" points="153.356,45.9117 157.6469,39.8991 160.0459,64.6191 "/>
   <polygon class="fil51" points="158.0661,39.4736 164.9986,34.197 158.7875,46.3324 "/>
   <polygon class="fil52" points="158.8904,47.0758 162.1136,40.7912 160.421,47.7091 "/>
   <polygon class="fil53" points="158.8163,47.503 160.4134,48.1285 159.8463,58.3213 "/>
   <polygon class="fil54" points="169.8473,72.8414 160.4203,65.8281 161.5979,52.0517 "/>
   <polygon class="fil55" points="169.8843,71.6718 169.1042,57.8363 161.7007,50.8891 "/>
   <polygon class="fil56" points="169.104,57.1446 161.8182,50.3592 164.8944,41.4991 "/>
   <polygon class="fil57" points="169.1479,56.0191 165.2326,40.9771 169.1479,35.3989 "/>
   <polygon class="fil58" points="169.5595,52.9659 169.6109,34.9209 174.8069,30.7336 "/>
   <polygon class="fil59" points="175.292,30.4543 170.9939,48.3378 175.3067,39.7422 "/>
   <polygon class="fil60" points="175.6894,39.1242 175.6781,30.2231 180.9953,27.82 "/>
   <polygon class="fil61" points="181.2895,27.7392 187.3315,26.8045 181.3411,31.7133 "/>
   <polygon class="fil62" points="180.9506,28.6371 180.9948,32.1476 177.1749,36.9386 "/>
   <polygon class="fil63" points="170.4261,72.7943 169.4918,54.5216 181.5316,71.8011 "/>
   <polygon class="fil64" points="181.7228,71.3604 169.5503,54.0217 174.2346,43.8437 "/>
   <polygon class="fil65" points="177.9437,55.5231 184.5081,44.2854 174.6171,43.5052 "/>
   <polygon class="fil66" points="174.7681,43.1116 185.3362,32.3671 184.7693,43.9654 "/>
   <polygon class="fil67" points="185.203,43.465 185.7711,32.0582 194.0887,26.8773 "/>
   <polygon class="fil68" points="186.8176,41.4196 194.7067,26.5832 192.3369,36.0181 "/>
   <polygon class="fil69" points="192.911,35.5469 195.1923,26.3626 200.653,24.5964 "/>
   <polygon class="fil70" points="201.2786,24.4637 194.0882,34.6711 203.0371,29.6375 "/>
   <polygon class="fil71" points="203.4199,29.505 201.69,24.3794 206.7237,24.1219 "/>
   <polygon class="fil72" points="207.1799,24.1438 204.0817,29.2367 214.1713,26.867 "/>
   <polygon class="fil73" points="178.0374,56.1425 182.4234,48.9304 182.335,71.7736 "/>
   <polygon class="fil74" points="182.8059,69.9495 182.9533,48.2544 191.2545,40.3949 "/>
   <polygon class="fil75" points="185.7495,61.0306 192.2697,39.4534 202.3961,33.3014 "/>
   <polygon class="fil76" points="190.2529,54.4672 203.1387,32.9784 210.5719,30.5133 "/>
   <polygon class="fil77" points="195.4703,49.0741 211.3738,30.3818 218.6518,29.9183 "/>
   <polygon class="fil78" points="202.9173,43.6219 219.3507,29.9924 226.6734,31.1037 "/>
   <polygon class="fil79" points="209.5994,40.5984 227.3794,31.2667 228.7848,37.9785 "/>
   <polygon class="fil80" points="227.7985,31.3696 229.1232,38.0373 237.5567,40.0537 "/>
   <polygon class="fil81" points="238.9255,40.6648 228.5484,31.5762 237.2987,34.9543 "/>
   <polygon class="fil82" points="237.6882,35.1018 239.3073,40.8863 242.0451,42.6084 "/>
   <polygon class="fil83" points="238.2562,35.427 242.8665,43.2871 246.0051,40.3876 "/>
   <polygon class="fil84" points="243.1347,43.5194 246.34,40.6382 245.2361,45.5322 "/>
   <polygon class="fil85" points="245.5963,45.7383 246.6484,40.9034 253.5333,48.0491 "/>
   <polygon class="fil86" points="174.2814,127.8465 163.6841,143.4484 190.6929,131.7324 "/>
   <polygon class="fil87" points="163.3969,143.9487 165.9434,163.4213 178.0421,137.6932 "/>
   <polygon class="fil88" points="163.1171,144.7582 165.3985,162.8767 162.3077,154.8844 "/>
   <polygon class="fil89" points="166.1344,163.8037 170.7488,154.0232 169.8361,167.2038 "/>
   <polygon class="fil90" points="170.1451,167.454 170.6602,160.1682 173.6479,169.4263 "/>
   <polygon class="fil91" points="173.8979,127.758 157.2109,123.552 160.1291,142.0492 "/>
   <polygon class="fil92" points="172.522,129.7003 168.5185,133.8362 170.6822,132.5042 "/>
   <polygon class="fil93" points="156.8681,123.4741 159.8489,142.5787 147.6109,149.327 "/>
   <polygon class="fil94" points="147.6108,149.6656 159.1763,143.399 149.8631,155.9538 "/>
   <polygon class="fil95" points="150.0692,156.3511 156.0888,148.1823 152.0305,158.544 "/>
   <polygon class="fil96" points="154.7094,152.6271 152.2808,158.9268 154.7536,160.7077 "/>
   <polygon class="fil97" points="153.2083,132.6388 141.8454,135.2588 156.4979,123.5721 "/>
   <polygon class="fil98" points="141.1757,135.2879 155.4822,123.9325 131.6308,131.6671 "/>
   <polygon class="fil99" points="131.3914,131.4022 130.8579,130.232 136.0978,129.8713 "/>
   <polygon class="fil100" points="131.8985,132.1157 140.3175,135.3684 135.5563,134.4927 "/>
   <polygon class="fil101" points="141.5648,128.0898 150.8522,125.1166 146.5103,125.6907 "/>
   <polygon class="fil102" points="153.1185,132.976 143.0509,137.3916 145.1115,149.6376 "/>
   <polygon class="fil103" points="142.845,137.9509 144.5818,148.5334 142.786,142.5136 "/>
   <polygon class="fil104" points="190.3132,132.3417 178.737,137.5004 171.9588,151.7994 "/>
   <polygon class="fil105" points="172.0838,152.3366 184.6171,171.6325 186.7731,136.6244 "/>
   <polygon class="fil106" points="172.4075,153.5577 183.8292,171.161 176.7494,163.7575 "/>
   <polygon class="fil107" points="184.9177,171.8819 185.5211,162.5208 192.7774,175.2673 "/>
   <polygon class="fil108" points="193.1963,175.3482 189.5019,168.9309 197.5532,175.8781 "/>
   <polygon class="fil109" points="189.6197,133.5028 187.1616,136.2553 186.9261,139.4639 "/>
   <polygon class="fil110" points="186.8821,140.2438 185.5719,161.8065 196.4784,168.1205 "/>
   <polygon class="fil111" points="187.8827,138.1459 187.0806,139.8606 187.8459,142.1714 "/>
   <polygon class="fil112" points="191.0619,151.2811 196.9493,168.2958 203.6904,170.2385 "/>
   <polygon class="fil113" points="193.9019,154.8131 203.7555,160.038 204.2564,170.3412 "/>
   <polygon class="fil114" points="260.2526,56.0069 264.8743,67.2224 266.67,66.045 "/>
   <polygon class="fil115" points="260.5471,57.5963 264.3445,66.8398 261.4155,62.6891 "/>
   <polygon class="fil116" points="265.0214,67.5535 266.8613,66.3172 267.8177,74.2138 "/>
   <polygon class="fil117" points="267.3025,67.2519 268.3106,75.8331 268.8624,70.6373 "/>
   <polygon class="fil118" points="268.5633,76.8891 269.1818,71.2738 272.9385,82.3017 "/>
   <polygon class="fil119" points="268.7509,77.79 273.1003,83.1181 269.6708,84.7228 "/>
   <polygon class="fil120" points="269.7004,85.069 273.196,83.3984 269.3552,92.0364 "/>
   <polygon class="fil121" points="269.0936,93.3987 273.3325,83.9864 274.9959,104.103 "/>
   <polygon class="fil122" points="268.9683,94.0828 275,104.916 268.3328,132.6309 "/>
   <polygon class="fil123" points="268.5863,95.3964 267.9135,133.5948 248.1022,157.7627 "/>
   <polygon class="fil124" points="274.7832,107.6528 269.1749,130.7238 272.8251,119.3613 "/>
   <polygon class="fil125" points="267.1437,135.1981 249.4004,156.8713 259.1077,147.429 "/>
   <polygon class="fil126" points="264.8336,105.3486 247.2595,158.482 235.6909,165.3114 "/>
   <polygon class="fil127" points="204.0749,159.9762 204.5236,170.3676 223.1355,169.7123 "/>
   <polygon class="fil128" points="251.6891,131.8119 235.0718,165.7529 223.6502,169.6386 "/>
   <polygon class="fil129" points="238.1917,104.6998 247.9648,111.9414 242.6662,117.77 "/>
   <polygon class="fil130" points="242.7252,118.2407 248.182,112.2245 242.7216,126.3726 "/>
   <polygon class="fil131" points="248.436,112.6143 251.8621,131.0677 242.3464,128.3229 "/>
   <polygon class="fil132" points="248.9111,113.4528 252.002,129.879 251.4131,120.5619 "/>
   <polygon class="fil133" points="251.6043,131.3868 223.3227,169.2501 203.9754,159.6018 "/>
   <polygon class="fil134" points="222.8155,147.6651 229.6452,139.5992 235.4736,140.4235 "/>
   <polygon class="fil135" points="242.1853,128.7073 235.8268,139.9229 251.0165,131.2978 "/>
   <polygon class="fil136" points="235.3889,140.0627 229.796,139.29 233.1889,129.8625 "/>
   <polygon class="fil137" points="240.9311,130.0094 235.6764,139.2822 233.3655,128.9644 "/>
   <polygon class="fil138" points="240.931,129.671 233.4095,128.6775 232.74,118.8968 "/>
   <polygon class="fil139" points="240.8494,128.9053 232.5331,118.1164 228.3531,108.667 "/>
   <polygon class="fil140" points="240.6872,127.8007 228.9417,108.8724 236.9047,116.2171 "/>
   <polygon class="fil141" points="221.6302,148.3993 203.3791,159.291 193.8414,151.5785 "/>
   <polygon class="fil142" points="207.8097,149.6428 193.5325,151.144 190.2354,143.6227 "/>
   <polygon class="fil143" points="202.5551,147.3318 190.2504,143.0929 190.8393,135.7626 "/>
   <polygon class="fil144" points="195.7992,140.1048 190.9567,135.3948 192.4286,132.6719 "/>
   <polygon class="fil145" points="194.5846,136.7122 192.6125,132.3994 194.0696,131.2219 "/>
  </g>
 </g>
</svg>
